<svg xmlns="http://www.w3.org/2000/svg" xmlns:xlink="http://www.w3.org/1999/xlink" width="443.1" height="389" viewBox="0 0 443.1 389">
  <defs>
    <clipPath id="clip-path">
      <rect id="Retângulo_3369" data-name="Retângulo 3369" width="401" height="389" fill="none"/>
    </clipPath>
  </defs>
  <g id="Grupo_6192" data-name="Grupo 6192" transform="translate(-631 -224.844)">
    <path id="Caminho_3606" data-name="Caminho 3606" d="M1644.1,639.421h0a29.5,29.5,0,0,0-29.458-29.505l-65.659-.1a9.3,9.3,0,0,1,.136-18.608h7.978a42.689,42.689,0,0,0,0-85.378h-41.9a4.37,4.37,0,0,1-4.369-4.37,49.958,49.958,0,0,0-49.958-49.958H1334c-32.586,0-58.349,7.962-58.349,40.548l-.5,14.053a4.565,4.565,0,0,1-4.562,4.4h-6.79a62.8,62.8,0,1,0,0,125.607h73.8a32.579,32.579,0,0,1,29.505,18.754,24.247,24.247,0,0,0,21.994,13.819h50.586l174.866.242a29.5,29.5,0,0,0,29.546-29.5" transform="translate(-570 -170.499)" fill="#e1173f"/>
    <g id="Grupo_6158" data-name="Grupo 6158" transform="translate(663 224.844)">
      <g id="Grupo_6157" data-name="Grupo 6157" clip-path="url(#clip-path)">
        <path id="Caminho_3586" data-name="Caminho 3586" d="M442.013,651.119s-13.633-12.583-27.694-4.946l10.113,24.509Z" transform="translate(-350.736 -387.487)" fill="#bc7629"/>
        <path id="Caminho_3587" data-name="Caminho 3587" d="M486.655,695.233s5.147,4.938,4.049,15.748c0,0-19.555,4.876-19.677,4.957s-.854-14.1,0-14.225,15.628-6.48,15.628-6.48" transform="translate(-356.073 -392.302)" fill="#bc7629"/>
        <path id="Caminho_3588" data-name="Caminho 3588" d="M664.386,553.559a76.8,76.8,0,0,0-12.95,35.26s-39.073,16.713-45.18,28.533c0,0-30.118-11-51.285-5.3,0,0,.345-.467,1.021-1.277l.108-.133c.145-.174.3-.362.475-.559l.147-.172,0,0c.081-.093.163-.189.246-.286.292-.329.608-.685.957-1.069.083-.092.17-.185.257-.279.74-.808,1.612-1.712,2.6-2.686l.38-.372c.209-.2.426-.413.645-.619.177-.169.358-.341.542-.512q.615-.578,1.284-1.174c.152-.135.3-.271.461-.407.177-.154.353-.312.535-.468.038-.035.079-.07.122-.106l.569-.487.033-.026c.215-.182.435-.364.657-.549a.221.221,0,0,1,.023-.021l.438-.359q.7-.575,1.443-1.15c19.115-1.816,39.837.48,39.837.48,3.222-3.869,9.33-8.762,15.536-13.26l0,0c9.485-6.872,19.2-12.826,19.2-12.826s-8.412-34.514-2.442-50.821,15.739-15.491,16.554,0c.553,10.537,5,23.46,7.785,30.65" transform="translate(-364.071 -375.083)" fill="#c98867"/>
        <path id="Caminho_3589" data-name="Caminho 3589" d="M632.177,538.83c-.268,9.708-7.416,44.62-7.528,45.167l0,0c-6.206,4.5-12.314,9.391-15.536,13.26,0,0-20.722-2.3-39.837-.48,7.856-6.107,19-12.4,32.64-13.782,20.181-2.049,11.78-11.888-.437-16.657a40.768,40.768,0,0,0-3.986-1.332,86.955,86.955,0,0,1,4.527-12.267,118.363,118.363,0,0,1,7.908-14.728,160.732,160.732,0,0,1-7.328-24.46c-2.882-12.993-.054-21.9,3.572-27.6a5.078,5.078,0,0,1,9.239,1.625,34.185,34.185,0,0,0,5.642,13.2c5.427,7.066,11.4,28.265,11.126,38.048" transform="translate(-365.427 -372.524)" fill="#b57759"/>
        <path id="Caminho_3590" data-name="Caminho 3590" d="M601.29,551.105a86.88,86.88,0,0,0-4.527,12.268,29.509,29.509,0,0,0-10.637-1.171,142.21,142.21,0,0,0-15.729,2.611c1.012-3.731,2.768-8.922,5.422-12.673,0,0-16.146-26.1-14.029-50.9,1.315-15.407,10.435-35.155,10.435-35.155l9.292,40.7s8.955,33.939,16.825,39.646a8.132,8.132,0,0,1,2.947,4.672" transform="translate(-364.699 -370.887)" fill="#a6654a"/>
        <path id="Caminho_3591" data-name="Caminho 3591" d="M675.43,542.918c-4.31,17.534-7.428,45.3-9.864,56.877-3.256,15.491-25.237,28.128-36.631,35.872s-28.493,25.682-47.217,25.275-76.112,0-76.112,0c-8.957,4.485-30.1,25.478-47.307,43.456l-46.233-43.7c8.622-7.08,16.67-13.8,21.5-18.1,14.651-13.045,8.956-23.642,29.709-47.691s54.949-16.31,67.16-17.939c7.968-1.064,16.451-3.514,25.791-5.543a142.4,142.4,0,0,1,15.727-2.612,29.567,29.567,0,0,1,10.637,1.174,39.961,39.961,0,0,1,3.989,1.332,39.2,39.2,0,0,1,4.018,1.823c.194.1.385.2.575.307l.286.154c.187.107.37.214.557.32.458.267.9.539,1.326.818q.379.247.747.507c.359.248.7.506,1.029.762.118.088.231.18.34.272.429.348.828.7,1.191,1.06.062.058.12.121.179.18a11.657,11.657,0,0,1,1.088,1.254c.08.111.158.217.227.324a6.348,6.348,0,0,1,.824,1.632c.033.114.066.228.091.342.015.059.025.118.037.172.281,1.5-.327,2.906-2.121,4.065a12.218,12.218,0,0,1-2.725,1.257c-.088.03-.176.06-.267.088l-.018.008c-.078.025-.158.052-.243.073-.26.08-.531.158-.817.234s-.575.148-.882.218l-.1.021c-.173.038-.349.077-.528.114s-.359.07-.546.106c0,0-.025.007-.073.015-1.285.3-19.272,4.533-28.994,12.5a21.122,21.122,0,0,1-1.938,1.4,52.776,52.776,0,0,1-10.79,4.933l-.008,0c-.076.077-.16.15-.238.224-.183.169-.366.341-.542.51-.219.206-.435.415-.644.62l-.381.371c-.989.975-1.861,1.878-2.6,2.684l-.257.284q-.521.571-.956,1.067c-.084.1-.165.195-.245.286l0,0c-.051.058-.1.117-.147.172-.176.2-.333.385-.476.557-.036.048-.072.092-.11.136-.674.81-1.018,1.275-1.018,1.275,21.167-5.707,51.286,5.3,51.286,5.3,6.105-11.82,45.176-28.532,45.176-28.532.249-2.271.59-4.472,1-6.6.165-.855.345-1.694.535-2.527a76.319,76.319,0,0,1,11.413-26.132,83.685,83.685,0,0,1,16.794-18.048,4.891,4.891,0,0,1,7.8,4.992" transform="translate(-350.522 -377.499)" fill="#d79573"/>
        <path id="Caminho_3592" data-name="Caminho 3592" d="M606.725,591.88s-22.2,6.291-28.039,10.45-9.739,7.374-16.629,9.091c0,0-10.091,9.6-12.793,15.106" transform="translate(-363.529 -382.643)" fill="none" stroke="#b57759" stroke-linecap="round" stroke-linejoin="round" stroke-width="1.553"/>
        <path id="Caminho_3593" data-name="Caminho 3593" d="M670.869,563.277s-12.589,19.431-7.766,38.506" transform="translate(-374.218 -379.97)" fill="none" stroke="#b57759" stroke-linecap="round" stroke-linejoin="round" stroke-width="1.553"/>
        <path id="Caminho_3594" data-name="Caminho 3594" d="M636.931,607.333s-28.837,13.169-27.2,24.489" transform="translate(-369.256 -384.087)" fill="none" stroke="#b57759" stroke-linecap="round" stroke-linejoin="round" stroke-width="1.553"/>
        <path id="Caminho_3595" data-name="Caminho 3595" d="M483.255,706.417l-17.72,26.61a182.441,182.441,0,0,1-73.472-66.168l20.143-20.433a43.4,43.4,0,0,1,27.178,26.018c12.745,33.973,24.653,35.315,43.87,33.973" transform="translate(-348.626 -387.74)" fill="#f4b81b"/>
        <path id="Caminho_3596" data-name="Caminho 3596" d="M543.347,408.636l-51.611,68.928-52.163,13.784,51.611-68.929Z" transform="translate(-353.13 -365.519)" fill="#85ccb7"/>
        <path id="Caminho_3597" data-name="Caminho 3597" d="M688.914,369.762,649.2,422.807,637.3,438.694,568.4,456.9l51.615-68.933,13-3.434Z" transform="translate(-365.344 -361.886)" fill="#85ccb7"/>
        <path id="Caminho_3598" data-name="Caminho 3598" d="M696.133,369.763,720.688,427.8l-51.609,68.93-24.556-58.042Z" transform="translate(-372.561 -361.886)" fill="#1bac82"/>
        <line id="Linha_91" data-name="Linha 91" y1="68.731" x2="51.451" transform="translate(276.775 19.454)" fill="none" stroke="#188b69" stroke-miterlimit="10" stroke-width="1.03"/>
        <line id="Linha_92" data-name="Linha 92" y1="68.93" x2="51.61" transform="translate(281.852 30.788)" fill="none" stroke="#188b69" stroke-miterlimit="10" stroke-width="1.03"/>
        <line id="Linha_93" data-name="Linha 93" y1="68.93" x2="51.61" transform="translate(287.065 43.568)" fill="none" stroke="#188b69" stroke-miterlimit="10" stroke-width="1.03"/>
        <line id="Linha_94" data-name="Linha 94" y1="68.93" x2="51.61" transform="translate(292.36 56.295)" fill="none" stroke="#188b69" stroke-miterlimit="10" stroke-width="1.03"/>
        <path id="Caminho_3599" data-name="Caminho 3599" d="M439.576,494.821l24.555,58.041,185.517-49.022L625.092,445.8Z" transform="translate(-353.13 -368.991)" fill="#5abe98"/>
        <line id="Linha_95" data-name="Linha 95" y1="49.222" x2="185.676" transform="translate(91.1 88.185)" fill="none" stroke="#1eab81" stroke-miterlimit="10" stroke-width="1.03"/>
        <line id="Linha_96" data-name="Linha 96" y1="49.222" x2="185.676" transform="translate(95.613 99.792)" fill="none" stroke="#1eab81" stroke-miterlimit="10" stroke-width="1.03"/>
        <line id="Linha_97" data-name="Linha 97" y1="49.222" x2="185.676" transform="translate(101.389 112.498)" fill="none" stroke="#1eab81" stroke-miterlimit="10" stroke-width="1.03"/>
        <line id="Linha_98" data-name="Linha 98" y1="49.222" x2="185.676" transform="translate(106.684 125.224)" fill="none" stroke="#1eab81" stroke-miterlimit="10" stroke-width="1.03"/>
        <path id="Caminho_3600" data-name="Caminho 3600" d="M497.818,482.7l26.028,57.651L586.907,523.8l-24.555-58.042Z" transform="translate(-358.652 -370.857)" fill="#cacaca"/>
        <path id="Caminho_3601" data-name="Caminho 3601" d="M618.906,433.408l38.114-48.423-157.53,41.8-36.676,48.35Z" transform="translate(-355.333 -363.308)" fill="none" stroke="#5bbd97" stroke-linecap="round" stroke-linejoin="round" stroke-width="1.373"/>
        <path id="Caminho_3602" data-name="Caminho 3602" d="M613.262,389.847l-38.794,51.809-12.82,17.124L497.2,475.808l51.61-68.928,9.847-2.6Z" transform="translate(-358.593 -363.763)" fill="#e8e8e8"/>
        <path id="Caminho_3603" data-name="Caminho 3603" d="M.008.008,7.575,0,7.569,7.57,0,7.575Z" transform="matrix(0.729, -0.684, 0.684, 0.729, 70.76, 110.688)" fill="#e9e9e9"/>
        <path id="Caminho_3604" data-name="Caminho 3604" d="M.005.005,5.026,0l0,5.022L0,5.027Z" transform="translate(51.526 127.066) rotate(-43.183)" fill="#e9e9e9"/>
        <path id="Caminho_3605" data-name="Caminho 3605" d="M.011.011,10.069,0l-.008,10.06L0,10.071Z" transform="matrix(0.729, -0.684, 0.684, 0.729, 66.564, 138.81)" fill="#fff"/>
      </g>
    </g>
  </g>
</svg>
