<svg xmlns="http://www.w3.org/2000/svg" width="44.655" height="37.862" viewBox="0 0 44.655 37.862"><g transform="translate(-671.75 -270.75)"><g transform="translate(672 271)"><path d="M42.457,4.076H27.852V.34a.336.336,0,0,0-.34-.34H16.643a.336.336,0,0,0-.34.34V4.076H1.7A1.7,1.7,0,0,0,0,5.774V30.229a1.7,1.7,0,0,0,1.7,1.7H25.039a8.47,8.47,0,0,0,15.814,0h1.6a1.7,1.7,0,0,0,1.7-1.7V5.774A1.7,1.7,0,0,0,42.457,4.076ZM16.983.679h10.19v3.4H16.983Zm15.964,36a7.812,7.812,0,1,1,7.812-7.812A7.822,7.822,0,0,1,32.946,36.683Zm10.529-6.453a1.026,1.026,0,0,1-1.019,1.019H41.1a8.594,8.594,0,0,0,.34-2.378,8.491,8.491,0,0,0-16.983,0,8.594,8.594,0,0,0,.34,2.378H1.7A1.026,1.026,0,0,1,.679,30.229V13.07L13.8,18.314a.4.4,0,0,0,.122.027h6.453v2.378a.336.336,0,0,0,.34.34h2.717a.336.336,0,0,0,.34-.34V18.341h6.453a.4.4,0,0,0,.122-.027L43.476,13.07Zm-22.417-9.85V15.624H23.1v4.755Zm22.417-8.043L30.161,17.662H23.776V15.284a.336.336,0,0,0-.34-.34H20.719a.336.336,0,0,0-.34.34v2.378H13.994L.679,12.336V5.774A1.026,1.026,0,0,1,1.7,4.755H42.457a1.026,1.026,0,0,1,1.019,1.019Z" fill="#3b69ff" stroke="#3b69ff" stroke-width="0.5"/><path d="M27.774,19.038a.34.34,0,1,0,0-.679H25.4V17.34a.34.34,0,1,0-.679,0v1.019h-.34a2.378,2.378,0,1,0,0,4.755.34.34,0,1,0,0-.679,1.7,1.7,0,0,1,0-3.4h.34V26.51H22.34a.34.34,0,1,0,0,.679h2.378v1.019a.34.34,0,1,0,.679,0V27.19h.34a2.378,2.378,0,0,0,0-4.755.34.34,0,1,0,0,.679,1.7,1.7,0,1,1,0,3.4H25.4V19.038Z" transform="translate(7.89 6.096)" fill="#3b69ff" stroke="#3b69ff" stroke-width="0.5"/></g></g></svg>