<svg xmlns="http://www.w3.org/2000/svg" width="44.388" height="44.426" viewBox="0 0 44.388 44.426"><g transform="translate(-0.221)"><g transform="translate(0.221)"><path d="M43.959,23.474a.65.65,0,0,0,.65-.65V6.751A1.953,1.953,0,0,0,42.658,4.8H37.415L33.617.234a.65.65,0,0,0-1,0L28.82,4.8H2.172A1.954,1.954,0,0,0,.221,6.751v4.8a.65.65,0,0,0,1.3,0v-4.8a.651.651,0,0,1,.65-.65H27.737l-.92,1.106a.651.651,0,0,0,.5,1.066h2.024V30.319H25.809V12.126a.65.65,0,0,0-.65-.65H18.908a.65.65,0,0,0-.65.65v5.9a.65.65,0,0,0,1.3,0V12.776h4.95V30.319h-4.95V20.626a.65.65,0,1,0-1.3,0v9.693H14.725V18.541a.65.65,0,0,0-.65-.65H7.824a.65.65,0,0,0-.65.65V30.319H1.522V14.157a.65.65,0,0,0-1.3,0v21.5a1.953,1.953,0,0,0,1.951,1.951H16.418l-.371,3.232H12.959a.65.65,0,0,0-.65.65v2.282a.65.65,0,0,0,.65.65H31.871a.65.65,0,0,0,.65-.65V41.493a.65.65,0,0,0-.65-.65H28.783l-.371-3.232H42.658a1.954,1.954,0,0,0,1.951-1.951V25.426a.65.65,0,1,0-1.3,0v4.893H36.893V8.273h2.024a.651.651,0,0,0,.5-1.066L38.5,6.1h4.161a.651.651,0,0,1,.65.65V22.824A.651.651,0,0,0,43.959,23.474ZM8.474,19.191h4.95V30.319H8.474ZM31.22,42.144v.982H13.609v-.982Zm-13.864-1.3.371-3.232H27.1l.371,3.232ZM43.308,31.62v4.04h0a.651.651,0,0,1-.65.65H2.172a.651.651,0,0,1-.65-.65V31.62ZM36.243,6.973a.65.65,0,0,0-.65.65v22.7h-4.95V7.623a.65.65,0,0,0-.65-.65H28.7l.922-1.108h0l3.491-4.2,3.491,4.2h0l.922,1.108H36.243Z" transform="translate(-0.221)" fill="#3b69ff"/></g></g></svg>