<svg xmlns="http://www.w3.org/2000/svg" width="41.44" height="31.803" viewBox="0 0 41.44 31.803"><g transform="translate(-436.28 -273.736)"><g transform="translate(436.28 -678.624)"><path d="M2.409,952.36A2.416,2.416,0,0,0,0,954.769v28.912a.5.5,0,0,0,.482.482H40.958a.5.5,0,0,0,.482-.482V954.769a2.416,2.416,0,0,0-2.409-2.409Zm0,.964H39.031a1.432,1.432,0,0,1,1.446,1.446v4.337H.964v-4.337A1.432,1.432,0,0,1,2.409,953.324Zm1.927,2.409a.482.482,0,0,0,0,.964H13.01a.482.482,0,0,0,0-.964ZM.964,960.07H40.477V983.2H.964Zm19.573,3.4-13.492,5.3a.508.508,0,0,0,0,.887l4.549,1.793a.471.471,0,0,0-.029.183v4.819a1.823,1.823,0,0,0,.872,1.388,7.32,7.32,0,0,0,1.985,1.007,19.385,19.385,0,0,0,6.293.978,19.385,19.385,0,0,0,6.293-.978,7.456,7.456,0,0,0,1.985-1.007,1.808,1.808,0,0,0,.872-1.388v-4.819a.582.582,0,0,0-.029-.183l4.549-1.793a.508.508,0,0,0,0-.887l-13.492-5.3A.744.744,0,0,0,20.537,963.472Zm.183.964,12.182,4.79L20.72,974,8.539,969.225Zm-8.192,7.382,8.009,3.147a.47.47,0,0,0,.361,0l8.013-3.147v4.635c0,.1-.12.328-.5.617a6.4,6.4,0,0,1-1.715.858,18.482,18.482,0,0,1-5.98.935,18.482,18.482,0,0,1-5.98-.935,6.4,6.4,0,0,1-1.715-.858c-.376-.289-.5-.52-.5-.617Z" fill="#3b69ff"/></g></g></svg>