<svg xmlns="http://www.w3.org/2000/svg" width="32.096" height="34" viewBox="0 0 32.096 34"><g transform="translate(-4 -2)"><path d="M27,13h5.667v1.133H27Z" transform="translate(-9.967 -4.767)" fill="#3b69ff"/><path d="M17,19H34v1.133H17Z" transform="translate(-5.633 -7.367)" fill="#3b69ff"/><path d="M17,25H34v1.133H17Z" transform="translate(-5.633 -9.967)" fill="#3b69ff"/><path d="M35,31h6.8v1.133H35Z" transform="translate(-13.433 -12.567)" fill="#3b69ff"/><path d="M35.694,21.867a1.672,1.672,0,0,0-.527-.408V13.9a1.705,1.705,0,0,0-1.7-1.7h-1.7V8.233a.585.585,0,0,0-.164-.4L25.936,2.164a.585.585,0,0,0-.4-.164h-17a.567.567,0,0,0-.567.567V12.2H5.7A1.705,1.705,0,0,0,4,13.9V35.433A.567.567,0,0,0,4.567,36H32.509a1.688,1.688,0,0,0,1.672-1.422l1.893-11.333a1.711,1.711,0,0,0-.38-1.377Zm-3.927-8.534h1.7a.567.567,0,0,1,.567.567v7.367H31.767ZM26.1,3.932l3.734,3.734H26.667A.567.567,0,0,1,26.1,7.1Zm-17-.8H24.967V7.1a1.705,1.705,0,0,0,1.7,1.7h3.967V21.267H9.1ZM5.133,13.9a.567.567,0,0,1,.567-.567H7.967v7.933H7.791a1.688,1.688,0,0,0-1.672,1.422l-.986,5.9ZM33.064,34.391a.56.56,0,0,1-.555.476H5.235l2-11.991a.56.56,0,0,1,.555-.476H34.4a.567.567,0,0,1,.561.657Z" transform="translate(0)" fill="#3b69ff"/></g></svg>