<svg xmlns="http://www.w3.org/2000/svg" xmlns:xlink="http://www.w3.org/1999/xlink" width="443.1" height="362.654" viewBox="0 0 443.1 362.654">
  <defs>
    <clipPath id="clip-path">
      <rect id="Retângulo_3386" data-name="Retângulo 3386" width="364.442" height="362.655" fill="none"/>
    </clipPath>
  </defs>
  <g id="Grupo_6193" data-name="Grupo 6193" transform="translate(-631 -226.242)">
    <path id="Caminho_3606" data-name="Caminho 3606" d="M1644.1,639.421h0a29.5,29.5,0,0,0-29.458-29.505l-65.659-.1a9.3,9.3,0,0,1,.136-18.608h7.978a42.689,42.689,0,0,0,0-85.378h-41.9a4.37,4.37,0,0,1-4.369-4.37,49.958,49.958,0,0,0-49.958-49.958H1334c-32.586,0-58.349,7.962-58.349,40.548l-.5,14.053a4.565,4.565,0,0,1-4.562,4.4h-6.79a62.8,62.8,0,1,0,0,125.607h73.8a32.579,32.579,0,0,1,29.505,18.754,24.247,24.247,0,0,0,21.994,13.819h50.586l174.866.242a29.5,29.5,0,0,0,29.546-29.5" transform="translate(-570 -170.5)" fill="#445ba7"/>
    <g id="Grupo_6191" data-name="Grupo 6191" transform="translate(319.395 -123.42)">
      <g id="Grupo_6188" data-name="Grupo 6188" transform="translate(355.605 349.663)">
        <g id="Grupo_6187" data-name="Grupo 6187" clip-path="url(#clip-path)">
          <path id="Caminho_3649" data-name="Caminho 3649" d="M641.339,672.955l12.335,2.086a19.811,19.811,0,0,0,22.839-16.229l40.355-238.562a19.813,19.813,0,0,0-16.23-22.839L688.3,395.325Z" transform="translate(-398.604 -356.534)" fill="#92191f"/>
          <path id="Caminho_3650" data-name="Caminho 3650" d="M442.789,639.814l164.689,27.858a19.812,19.812,0,0,0,22.839-16.23l40.355-238.562a19.811,19.811,0,0,0-16.23-22.839L489.753,362.182a19.813,19.813,0,0,0-22.839,16.231L426.558,616.975a19.814,19.814,0,0,0,16.231,22.839" transform="translate(-366.24 -351.505)" fill="#e93349"/>
          <path id="Caminho_3651" data-name="Caminho 3651" d="M654.025,429.875,624.817,602.539,568.781,642.36,448.942,622.088,486.258,401.5Z" transform="translate(-369.651 -357.463)" fill="#eaeaea"/>
          <path id="Caminho_3652" data-name="Caminho 3652" d="M628.578,488.7,521.54,470.594a2.959,2.959,0,0,1-2.424-3.411l.057-.336a2.958,2.958,0,0,1,3.41-2.424L629.622,482.53a2.959,2.959,0,0,1,2.423,3.411l-.056.335a2.959,2.959,0,0,1-3.411,2.424" transform="translate(-380.205 -366.926)" fill="#d5d5d5"/>
          <path id="Caminho_3653" data-name="Caminho 3653" d="M620.5,536.484,513.457,518.378a2.958,2.958,0,0,1-2.424-3.411l.057-.336a2.959,2.959,0,0,1,3.41-2.424l107.039,18.107a2.957,2.957,0,0,1,2.423,3.41l-.056.336a2.958,2.958,0,0,1-3.411,2.424" transform="translate(-378.988 -374.117)" fill="#d5d5d5"/>
          <path id="Caminho_3654" data-name="Caminho 3654" d="M612.412,584.269,505.374,566.162a2.957,2.957,0,0,1-2.424-3.41l.057-.336a2.958,2.958,0,0,1,3.41-2.424L613.456,578.1a2.958,2.958,0,0,1,2.424,3.411l-.057.336a2.958,2.958,0,0,1-3.41,2.424" transform="translate(-377.772 -381.308)" fill="#d5d5d5"/>
          <path id="Caminho_3655" data-name="Caminho 3655" d="M554.753,623.667l-57.462-9.72a2.958,2.958,0,0,1-2.424-3.411l.056-.336a2.959,2.959,0,0,1,3.411-2.424L555.8,617.5a2.959,2.959,0,0,1,2.423,3.411l-.056.336a2.959,2.959,0,0,1-3.411,2.424" transform="translate(-376.555 -388.499)" fill="#d5d5d5"/>
          <rect id="Retângulo_3384" data-name="Retângulo 3384" width="130.277" height="94.093" transform="translate(169.94 164.827) rotate(-72.052)" fill="#fff"/>
          <rect id="Retângulo_3385" data-name="Retângulo 3385" width="90.465" height="76.337" transform="translate(187.77 138.592) rotate(-72.052)" fill="#818181"/>
        </g>
      </g>
      <g id="Grupo_6190" data-name="Grupo 6190" transform="translate(355.605 349.663)">
        <g id="Grupo_6189" data-name="Grupo 6189" clip-path="url(#clip-path)">
          <path id="Caminho_3656" data-name="Caminho 3656" d="M626.778,402.284l-63.993-10.825a23.647,23.647,0,0,0-27.259,19.371L533.128,425l110.625,18.713,2.323-13.731.075-.44a23.646,23.646,0,0,0-19.372-27.259" transform="translate(-382.319 -355.902)" fill="#ababab"/>
          <path id="Caminho_3657" data-name="Caminho 3657" d="M626.751,358.353l-51.367-8.689-6.046,35.742,61.785,10.452,4.283-25.325a10.566,10.566,0,0,0-8.656-12.18" transform="translate(-387.768 -349.663)" fill="#ababab"/>
          <path id="Caminho_3658" data-name="Caminho 3658" d="M635.77,427.788l-.071.44-2.323,13.73-37.07-6.271-14.751-2.492-8.4-1.423-22.968-3.887-27.435-4.639,2.4-14.171A23.649,23.649,0,0,1,552.406,389.7l26.946,4.558,22.971,3.886,8.4,1.423h0l5.677.959a23.612,23.612,0,0,1,19.368,27.259" transform="translate(-380.758 -355.638)" fill="#d5d5d5"/>
          <path id="Caminho_3659" data-name="Caminho 3659" d="M616.374,356.883l-40.948-6.926a10.567,10.567,0,0,0-12.181,8.656l-4.284,25.325,61.786,10.452,4.283-25.326a10.566,10.566,0,0,0-8.656-12.18" transform="translate(-386.207 -349.685)" fill="#d5d5d5"/>
          <path id="Caminho_3660" data-name="Caminho 3660" d="M590.01,676.537l8.108-47.929,47.929,8.108Z" transform="translate(-390.879 -391.64)" fill="#ababab"/>
          <path id="Caminho_3661" data-name="Caminho 3661" d="M485.992,616.444l.71-.5a7.581,7.581,0,0,0,1.788-10.572l-82.618-116.26a7.582,7.582,0,0,0-10.573-1.788l-.71.5A7.582,7.582,0,0,0,392.8,498.4l82.619,116.26a7.581,7.581,0,0,0,10.573,1.788" transform="translate(-360.991 -370.167)" fill="#0050c4"/>
          <path id="Caminho_3662" data-name="Caminho 3662" d="M432.634,526.518l.353-.251a3.771,3.771,0,0,0,.889-5.259L414.14,493.233a3.772,3.772,0,0,0-5.259-.889l-.354.251a3.773,3.773,0,0,0-.889,5.26l19.738,27.773a3.771,3.771,0,0,0,5.259.89" transform="translate(-363.33 -371.029)" fill="#eaeaea"/>
          <path id="Caminho_3663" data-name="Caminho 3663" d="M396.952,490.2l.208-.149a2.226,2.226,0,0,0,.525-3.1L392.749,480a2.225,2.225,0,0,0-3.1-.525l-.209.148a2.227,2.227,0,0,0-.526,3.1l4.936,6.946a2.228,2.228,0,0,0,3.106.526" transform="translate(-360.555 -369.135)" fill="#eaeaea"/>
          <path id="Caminho_3664" data-name="Caminho 3664" d="M495.907,639.669l9.594,5.414a1.245,1.245,0,0,0,1.836-1.3l-1.958-10.84Z" transform="translate(-376.718 -392.291)" fill="#ababab"/>
        </g>
      </g>
    </g>
  </g>
</svg>
