<svg xmlns="http://www.w3.org/2000/svg" xmlns:xlink="http://www.w3.org/1999/xlink" width="454.232" height="363.912" viewBox="0 0 454.232 363.912"><defs><clipPath id="a"><path d="M365.1,673.706a1.034,1.034,0,0,0-.613,1.329c.431,1.17.913,2.261,1.429,3.358q.381.824.792,1.629t.839,1.6q1.722,3.183,3.727,6.2c.334.5.677,1,1.018,1.5l1.048,1.478c.72.969,1.435,1.943,2.193,2.885.372.476.755.945,1.141,1.411s.767.936,1.169,1.387l1.2,1.366c.4.45.819.891,1.23,1.336a73.239,73.239,0,0,0,10.889,9.616c.973.723,2.005,1.37,3.014,2.037.517.319,1.04.627,1.56.939.26.156.519.313.783.461l.8.435c.532.291,1.069.571,1.6.851l1.643.778.824.379.843.343c.565.22,1.125.448,1.694.653a.691.691,0,0,0,.662-1.192l-.007-.005c-3.729-2.952-7.37-5.826-10.8-8.953q-5.178-4.637-9.932-9.695c-3.169-3.377-6.188-6.9-9.105-10.532q-2.18-2.729-4.288-5.532c-.705-.933-1.391-1.879-2.09-2.82l-1.027-1.425c-.346-.469-.682-.962-1.01-1.418l-.025-.036a1.037,1.037,0,0,0-.841-.43,1.013,1.013,0,0,0-.358.064" transform="translate(-364.419 -673.642)" fill="none"/></clipPath><clipPath id="b"><rect width="383.132" height="363.912" fill="none"/></clipPath><clipPath id="c"><rect width="521.34" height="525.082" transform="translate(0 415.881) rotate(-52.912)" fill="none"/></clipPath><clipPath id="d"><rect width="1026.521" height="1026.663" transform="matrix(0.603, -0.798, 0.798, 0.603, 0, 818.872)" fill="none"/></clipPath><clipPath id="e"><path d="M358.076,490.97A130.542,130.542,0,1,0,488.617,360.428,130.541,130.541,0,0,0,358.076,490.97" transform="translate(-358.076 -360.428)" fill="none"/></clipPath></defs><g transform="translate(-619.868 -207.708)"><path d="M1644.1,639.421h0a29.5,29.5,0,0,0-29.458-29.505l-65.659-.1a9.3,9.3,0,0,1,.136-18.608h7.978a42.689,42.689,0,0,0,0-85.378h-41.9a4.37,4.37,0,0,1-4.369-4.37,49.958,49.958,0,0,0-49.958-49.958H1334c-32.586,0-58.349,7.962-58.349,40.548l-.5,14.053a4.565,4.565,0,0,1-4.562,4.4h-6.79a62.8,62.8,0,1,0,0,125.607h73.8a32.579,32.579,0,0,1,29.505,18.754,24.247,24.247,0,0,0,21.994,13.819h50.586l174.866.242a29.5,29.5,0,0,0,29.546-29.5" transform="translate(-570 -170.499)" fill="#3b69ff"/><g transform="translate(416.302 -139.313)"><g transform="translate(308.221 559.528)"><g transform="translate(0 0)" clip-path="url(#a)"><g transform="translate(-104.655 -212.508)"><g clip-path="url(#b)"><g transform="translate(-175.06 -184.306)"><g transform="translate(0 0)"><g clip-path="url(#c)"><g transform="translate(-352.38 -352.731)"><g clip-path="url(#d)"><image width="1438.139" height="1438.139" transform="translate(-0.063 -0.106)" xlink:href="Grupo%206192-image.png"/></g></g></g></g></g></g></g></g></g><g transform="translate(203.566 347.02)"><g clip-path="url(#b)"><path d="M692.049,472.168c-7.352-2.446-9.161-10.094-7.352-16.467,2.37-8.349.713-16.636-8.475-19.916-12.015-4.289-11.657-10.2-9.786-19.675,1.781-9.022.258-16.128-11.589-22.987s-4.07-16.51-18.18-26.638c-9.839-7.062-21.039-4.61-25.989-3.351-9.74-2.5-21.7-.264-27.376,8.756-5.656,9-.632,17.759-11.653,25.9s-11.173,12.7-8.176,21.662c4.336,12.968,1.532,16.4-7.709,21.184-5.168,2.673-7.489,10.037-4.281,15.831,3.784,6.835,5.077,15.078-2.889,19.7-6.607,3.832-11.172,12.113-8.3,18.807,2.986,6.971,12,10.366,18.784,9.985l131.872-4.631c6.787-.381,12.329-5.263,13-11.5.573-5.308-1.47-13.187-11.9-16.657" transform="translate(-320.904 -352.142)" fill="#151f47"/></g></g><g transform="translate(203.566 347.02)"><g clip-path="url(#b)"><path d="M338.354,671.607V582.278H447.71v89.329a3.524,3.524,0,0,1-3.524,3.524H341.878a3.524,3.524,0,0,1-3.524-3.524" transform="translate(-250.658 -429.214)" fill="#5a2b81"/><path d="M395.017,536.383H351.269V470.1h37.06a6.689,6.689,0,0,1,6.688,6.689Z" transform="translate(-255.17 -390.02)" fill="#acaeae"/><path d="M428.776,546.273H351.269V498.4h47.506c15.822,0,30,12.836,30,28.67Z" transform="translate(-255.17 -399.91)" fill="#c4c5c9"/><path d="M399.78,517.243a30.286,30.286,0,0,0-30.246-28.729H365.9V478.433a8.336,8.336,0,0,0-8.336-8.336H351.27v66.286h71.124v-19.14Z" transform="translate(-255.17 -390.02)" fill="#898a8e"/><rect width="36.018" height="19.14" transform="translate(160.323 127.223)" fill="#acaeae"/><rect width="20.57" height="7.423" transform="translate(115.488 87.057)" fill="#5a2b81"/><path d="M475.45,540.311H438.644v-2.463a1.726,1.726,0,0,1,1.727-1.726h33.352a1.726,1.726,0,0,1,1.727,1.726Z" transform="translate(-285.697 -413.088)" fill="#5a2b81"/><path d="M451.9,583.8H330.724V571.978H451.9a3.524,3.524,0,0,1,3.524,3.524v4.774A3.524,3.524,0,0,1,451.9,583.8" transform="translate(-247.992 -425.615)" fill="#7b2d90"/><path d="M584.31,597.818c-5.917,10.1-35.551-16.9-31-24.792s14.04-2.833,22.579,5.416,9.414,17.688,8.426,19.376" transform="translate(-325.592 -424.603)" fill="#92191f"/><path d="M541.954,627.838c-14.17-4.534,21.354-90.971,21.354-90.971L594.989,551.4s-20.112,51.136-35.188,65.442c-5.532,5.249-10.867,13.223-17.846,10.991" transform="translate(-320.624 -413.348)" fill="#f3d7cc"/><path d="M568.586,526.1s13-14.067,25.2-9.891c21.882,7.491,9.914,25.694,9.914,25.694-7.511,20.788-15.692,30.349-19.134,37.169,2.981-7.9-24.017-33.223-31-24.792a131.422,131.422,0,0,1,15.027-28.18" transform="translate(-325.845 -405.862)" fill="#92191f"/><path d="M682.729,556.622c-1.388,25.05-12.1,63.725-18.244,88.416a24.381,24.381,0,0,1-6.212,11.122c-6.951,7.13-23.353,17.342-37.487,19.468-19.169,2.882-33.559-37.181-31.128-49.949-1.949-5.753,9.687-23.441,7.409-41.106-.441-3.417-9.539-6.443-8.962-23.182.393-11.385,7.915-34.166,13.741-45.976,0,0,52.982-.357,79.859,2.562,7.969.866,1.469,30.642,1.025,38.645" transform="translate(-337.905 -405.849)" fill="#d42240"/><path d="M464.864,754.5c-18.62,23.7-51.1,16.743-73.285,1.656-20.689-14.066-44.078-37.693-44.078-37.693-8.97,33.256-62.077,62.021-74.674,90.435-1.575,3.553-15.42,5.919-19.254,6.521-13.437,2.106-24.372.36-47.772-10.426-3.9-1.8-2.146-6.774,1.092-9.6,7.356-6.422,35.244-5.48,52.92-5.4,2.978-.995,45.8-81.194,51.17-94.629,9-22.505,23.256-29.632,34.41-28.326,57.882,6.772,139.988,61.352,119.469,87.464" transform="translate(-203.566 -458.775)" fill="#2c2c2b"/><path d="M531.739,702.407c-2.781,22.436-8.992,37.585-24.406,55.522-19.642,22.855-60.086,17-91.933-.995-21.781-12.309-46.228-39.908-46.228-39.908-12.753,39.346-63.587,57.68-81.166,99.9-1.493,3.588-5.465,5.506-9.3,6.107-13.436,2.1-42.4-.256-65.8-11.042-3.9-1.8-2.146-6.774,1.092-9.6,7.356-6.422,41.46-6.811,59.135-6.734,2.978-1,48.571-77.126,54.976-90.1,20.745-42.021,35.636-35.788,49.527-34.73,17.121,1.3,53.123,21.5,63.474,26.54,1.223-3.654,11.05-8.807,16.691-17.716,14.326,17.368,54.4,16.3,73.94,22.752" transform="translate(-206.047 -459.825)" fill="#3f3f3f"/><path d="M568.387,705.751a11.346,11.346,0,0,0-3.513,4.12s15.465,8.93,23.57,14.823c.807.587,1.505.168,1.079-.734-1.9-4.019-11.264-12.446-21.136-18.209" transform="translate(-329.798 -472.352)" fill="#2c2c2b"/><path d="M679.827,516.654c-5.28,9.255-19.063,21.977-38.991,18.847-8.83-1.387-10.128-13.841-6.253-20.044,8.229-.091,22.5-.461,45.244,1.2" transform="translate(-353.431 -405.833)" fill="#f3d7cc"/><path d="M572.611,634.915s-3.982,6.884-6.122,9.82L541.41,653.28s1.489-13.059,31.2-18.365" transform="translate(-321.601 -447.604)" fill="#eac4b4"/><path d="M539.555,658.811c-1.069-6.4,7.741-11.015,13.918-12.8,8.845-2.558,19.927-4.788,28.9-9.483,1.719,1.458,7.05,10.588,7.05,10.588-6.258,3.508-13.124,9.326-24.12,15.566-11.277,6.4-24.674,2.579-25.752-3.871" transform="translate(-320.922 -448.167)" fill="#f3d7cc"/><path d="M629.148,645.439c-5.744,2.1-13.936-3.787-20.738-.033-4.174,2.3-3.063-12.943-3.063-12.943,2.37-1.606,6.295-7.683,8.478-7.568s23.534,8.275,24.605,8.946.575,7.988-9.282,11.6" transform="translate(-343.892 -444.103)" fill="#f3d7cc"/></g></g><path d="M358.076,490.955A130.556,130.556,0,1,0,488.633,360.4,130.556,130.556,0,0,0,358.076,490.955" transform="translate(-53.982 -4.674)" fill="none"/><g transform="translate(203.566 347.02)" clip-path="url(#b)"><path d="M733.177,672.086c6.051-8.658-10.441-18.947-18.569-24.139-10.148-6.484-35.579-20.6-38.184-23.343-.519.228-3.435,10.544-3.435,10.544,6.016,4.575,16.985,21.507,27.79,30.179,17.217,13.819,28.987,11.641,32.4,6.759" transform="translate(-367.571 -444.001)" fill="#f3d7cc"/><path d="M710.512,601.362c3.241,11.523,41.615-3.579,39.158-12.557s-15.243-10.381-25.82-4.428-13.88,15.061-13.338,16.985" transform="translate(-380.661 -428.69)" fill="#92191f"/><path d="M739.715,648.945c18.2-4.485-2.028-98.957-2.028-98.957L702.6,556.182c4.049,9.429,3.258,14.247,7.791,26.867.738,2.062,10.928,29.973,11.9,40.328,1.28,13.647,8.282,27.822,17.426,25.568" transform="translate(-377.916 -417.932)" fill="#f3d7cc"/><path d="M736.865,536.017s-4.478-17.64-17.622-16.663c-23.577,1.755-21.186,23.221-21.186,23.221,2.058,22.5,6.456,29.679,8.1,37.313-.908-8.581,34.426-22.7,39.158-12.558a106.9,106.9,0,0,0-8.449-31.314" transform="translate(-376.306 -407.216)" fill="#92191f"/><path d="M646.117,622.219,627,593.244a6.016,6.016,0,0,0-4.26-2.1l-21.251-.982a2.217,2.217,0,0,0-1.727.459h0a.858.858,0,0,0-.107.14l-2.521,3.865L643.7,627.3l2.517-3.835,0,0a1.044,1.044,0,0,0-.1-1.247" transform="translate(-341.069 -431.964)" fill="#2c2c2b"/><path d="M641.908,629.822l-21.25-.983a6.013,6.013,0,0,1-4.26-2.1L597.281,597.76c-.709-1.076.048-1.876,1.691-1.789l21.251.982a6.014,6.014,0,0,1,4.26,2.1L643.6,628.033c.709,1.076-.048,1.876-1.692,1.789" transform="translate(-341.028 -433.995)" fill="#3f3f3f"/><path d="M659.119,617.075c-3.711-5.011-11.718-12.379-14.16-14.314s-6-.947-6-.947l2.535,3.841a3.472,3.472,0,0,1-1.737,4.751c-1.91,1.6-8.536-.83-13.951-2.662-2.5-.844-3.675,1.493-2.818,3.986,1.156,3.36,4.5,9.847,7.956,12.2,7.209,4.919,12.286,3.552,25.346,3.67Z" transform="translate(-350.005 -435.951)" fill="#f3d7cc"/><path d="M676.163,395v79.018H645.184V397.238a2.088,2.088,0,0,1,1.536-2.01,2.012,2.012,0,0,1,.535-.072h26.838c1.137,0,2.07-1.3,2.07-.155" transform="translate(-357.857 -363.619)" fill="#f3d7cc"/><path d="M676.163,513.857c0,2.925-6.935,5.3-15.489,5.3s-15.488-2.372-15.488-5.3,6.934-5.3,15.488-5.3,15.489,2.372,15.489,5.3" transform="translate(-357.857 -403.458)" fill="#f3d7cc"/><path d="M673.942,404.721v37.7a24.6,24.6,0,0,1-24.525,24.525h-4.233V397.612a2.088,2.088,0,0,1,1.536-2.01h20.529c5.469,1.091,6.694,8.393,6.694,9.119" transform="translate(-357.857 -363.994)" fill="#eac4b4"/><path d="M696.693,436.12c0,4.645-3.765,11.844-8.41,11.844s-8.411-7.2-8.411-11.844a8.41,8.41,0,1,1,16.821,0" transform="translate(-369.976 -375.211)" fill="#f3d7cc"/><path d="M661.989,389.8c-.236-3.3-12.247-5.122-26.828-4.079s-26.211,4.56-25.975,7.856c-.09.5.053,10.3-.047,12.77-.087,2.206,2.489,13.051,1.589,24.214-.5,6.156,3.219,11.8,8.034,18.382,2.312,3.16,8,10.606,13.724,10.2l7.609-.544c6.76-.483,23.675-12.787,22.709-26.277l-2.7-37.707c-.052-.726,1.964-3.662,1.882-4.812" transform="translate(-345.262 -360.438)" fill="#f3d7cc"/><path d="M656.983,381.506H616.031a8.648,8.648,0,0,0-8.646,8.418l-.376,14.119c1.77-5.769,6.882-12.456,8.99-15.055a32.716,32.716,0,0,1,8.3,6.3c6.671,7.4,25.613,22.823,46.941,18.549V395.759a14.253,14.253,0,0,0-14.253-14.253" transform="translate(-344.519 -359.069)" fill="#151f47"/><path d="M632.577,429.461l.846,1.169a6.914,6.914,0,0,1,1.315,4.139l-.128,11.057a4.753,4.753,0,0,0,2.859,4.413l1.181.512" transform="translate(-353.452 -375.823)" fill="none" stroke="#e9aa99" stroke-linecap="round" stroke-miterlimit="10" stroke-width="1.447"/><path d="M655.4,421.874l-6.737,1.565a2.164,2.164,0,0,1-2.6-1.619l-.025-.108a2.163,2.163,0,0,1,1.618-2.6l6.737-1.565a2.164,2.164,0,0,1,2.6,1.617l.025.109a2.164,2.164,0,0,1-1.619,2.6" transform="translate(-358.134 -371.642)" fill="#151f47"/><path d="M622.072,427.664l-6.853.936a2.164,2.164,0,0,1-2.437-1.852l-.016-.11a2.165,2.165,0,0,1,1.852-2.437l6.853-.935a2.165,2.165,0,0,1,2.437,1.852l.015.11a2.165,2.165,0,0,1-1.852,2.437" transform="translate(-346.524 -373.651)" fill="#151f47"/><path d="M643.22,469.875c.781,2.161,3.457,3.175,5.979,2.264s3.93-3.4,3.148-5.563Z" transform="translate(-357.171 -388.79)" fill="#fff"/><path d="M653.1,441.666a2.21,2.21,0,0,1,4.416-.207Z" transform="translate(-360.62 -379.279)" fill="#151f47"/><path d="M622.793,445.689a2.21,2.21,0,0,1,4.256-1.194Z" transform="translate(-350.005 -380.512)" fill="#151f47"/></g></g></g></svg>