<svg xmlns="http://www.w3.org/2000/svg" width="33.143" height="41.491" viewBox="0 0 33.143 41.491">
  <g id="Grupo_6121" data-name="Grupo 6121" transform="translate(-398 -175.89)">
    <path id="Caminho_3486" data-name="Caminho 3486" d="M399.067,216a4.177,4.177,0,0,0,3.1,1.385h24.8a4.171,4.171,0,0,0,4.147-4.62l-2.956-27.328a.48.48,0,0,0-.478-.429h-5.728v-1.729a7.386,7.386,0,0,0-14.772,0V185h-5.728a.48.48,0,0,0-.478.429l-2.956,27.328A4.177,4.177,0,0,0,399.067,216Zm9.079-32.721a6.425,6.425,0,0,1,12.851,0V185H408.146Zm-9.167,29.589,2.909-26.9h5.3v4.216a.48.48,0,1,0,.961,0v-4.216H421v4.216a.48.48,0,0,0,.961,0v-4.216h5.3l2.909,26.9a3.174,3.174,0,0,1-.8,2.49h0a3.172,3.172,0,0,1-2.389,1.066h-24.8a3.21,3.21,0,0,1-3.192-3.556Z" fill="#3b69ff"/>
    <path id="Caminho_3488" data-name="Caminho 3488" d="M570.39,416.337a2.529,2.529,0,0,0-2.43-2.613,1.664,1.664,0,0,1,0-3.3h1.949a.48.48,0,0,0,0-.961h-1.469V408.1a.48.48,0,0,0-.961,0v1.344l-.485.228a2.63,2.63,0,0,0-1.464,2.4,2.529,2.529,0,0,0,2.43,2.613,1.664,1.664,0,0,1,0,3.3h-1.949a.48.48,0,1,0,0,.961h1.469V420.3a.48.48,0,1,0,.961,0v-1.343l.485-.228A2.63,2.63,0,0,0,570.39,416.337Z" transform="translate(-153.403 -212.191)" fill="#3b69ff"/>
  </g>
</svg>
