<svg xmlns="http://www.w3.org/2000/svg" width="25.286" height="25.396" viewBox="0 0 25.286 25.396">
  <g id="Grupo_5629" data-name="Grupo 5629" transform="translate(-397.5 -223.239)">
    <path id="Caminho_3529" data-name="Caminho 3529" d="M410.115,248.635a12.7,12.7,0,0,0,0-25.4,12.543,12.543,0,0,0-12.346,10.154c-.055.381-.11.713-.163,1.033h0a14.09,14.09,0,0,0-.106,1.537,12.593,12.593,0,0,0,3.061,8.277l.234.275-.238.272a7.2,7.2,0,0,1-2.349,1.78l-.038.018-.04.01a.4.4,0,0,0-.246.189l-.009.014a.416.416,0,0,0-.062.325.4.4,0,0,0,.19.245,7.988,7.988,0,0,0,3.917,1.045,7.669,7.669,0,0,0,3.176-.653l.162-.073.165.066A12.362,12.362,0,0,0,410.115,248.635Zm-4.95-1.809-.026.014-.028.01a.37.37,0,0,0-.089.045l-.025.018-.028.014a6.713,6.713,0,0,1-2.993.675,7.185,7.185,0,0,1-1.986-.274l-.815-.234.682-.5a8.047,8.047,0,0,0,1.7-1.721l.024-.032.045-.041a.417.417,0,0,0,.11-.19l.008-.029a.412.412,0,0,0-.178-.463.446.446,0,0,0-.055-.033l-.066-.034-.05-.054a11.811,11.811,0,0,1-3.139-8.028,10.926,10.926,0,0,1,.11-1.4,5.122,5.122,0,0,1,.118-.935,11.862,11.862,0,1,1,11.628,14.193,11.729,11.729,0,0,1-4.472-.886l-.056-.023-.047-.038A.339.339,0,0,0,405.166,246.825Z" transform="translate(0 0)" fill="#fff"/>
    <path id="Caminho_3530" data-name="Caminho 3530" d="M577.352,402.821a1.122,1.122,0,1,0,1.122,1.122A1.123,1.123,0,0,0,577.352,402.821Z" transform="translate(-167.236 -168.034)" fill="#fff"/>
    <path id="Caminho_3531" data-name="Caminho 3531" d="M668.852,402.821a1.122,1.122,0,1,0,1.122,1.122A1.123,1.123,0,0,0,668.852,402.821Z" transform="translate(-252.852 -168.034)" fill="#fff"/>
    <path id="Caminho_3532" data-name="Caminho 3532" d="M484.993,402.821a1.122,1.122,0,1,0,1.122,1.122A1.123,1.123,0,0,0,484.993,402.821Z" transform="translate(-80.817 -168.034)" fill="#fff"/>
  </g>
</svg>
