<svg xmlns="http://www.w3.org/2000/svg" width="40" height="40" viewBox="0 0 40 40">
  <g id="Grupo_5959" data-name="Grupo 5959" transform="translate(-200 -629.043)">
    <circle id="Elipse_1494" data-name="Elipse 1494" cx="20" cy="20" r="20" transform="translate(200 629.043)" fill="#3b69ff"/>
    <g id="Grupo_5966" data-name="Grupo 5966" transform="translate(147.546 638.371)">
      <path id="Caminho_3442" data-name="Caminho 3442" d="M79.933,20.59l-2.814-5.952a.527.527,0,0,0-.27-.259l-1.4-.623,2.425-4.065.017-.03a6.643,6.643,0,0,0-1.251-7.75,6.64,6.64,0,0,0-10.574,7.75l.016.03,2.425,4.065-1.408.627a.526.526,0,0,0-.262.256L64.025,20.59a.527.527,0,0,0,.69.706l3.525-1.569L71.765,21.3a.527.527,0,0,0,.428,0l3.525-1.569L79.243,21.3a.527.527,0,0,0,.69-.706ZM66.393,6.6A5.614,5.614,0,0,1,71.9,1.054a5.588,5.588,0,0,1,5.062,8.113l-4.53,7.593a.527.527,0,0,1-.9,0L67,9.166A5.523,5.523,0,0,1,66.393,6.6ZM75.932,18.67a.527.527,0,0,0-.428,0l-3.525,1.569L68.454,18.67a.527.527,0,0,0-.428,0l-2.442,1.087,2.123-4.491,1.345-.6,1.57,2.632a1.58,1.58,0,0,0,2.713,0l1.57-2.632,1.345.6,2.123,4.491Z" transform="translate(0 0)" fill="#fff"/>
      <path id="Caminho_3443" data-name="Caminho 3443" d="M203.152,104.011a2.4,2.4,0,1,0-2.4,2.4A2.406,2.406,0,0,0,203.152,104.011Zm-3.754,0a1.35,1.35,0,1,1,1.35,1.35A1.352,1.352,0,0,1,199.4,104.011Z" transform="translate(-128.769 -97.373)" fill="#fff"/>
    </g>
  </g>
</svg>
