<svg xmlns="http://www.w3.org/2000/svg" width="41.453" height="35.195" viewBox="0 0 41.453 35.195">
  <g id="Grupo_6122" data-name="Grupo 6122" transform="translate(-448.5 -300.497)">
    <g id="Grupo_5864" data-name="Grupo 5864" transform="translate(-100.441 -243.809)">
      <path id="Caminho_3459" data-name="Caminho 3459" d="M587.074,561.758l-3.686,15.885A1.752,1.752,0,0,1,581.681,579H557.656a1.753,1.753,0,0,1-1.708-1.357l-3.685-15.885" fill="none" stroke="#3b69ff" stroke-linejoin="round" stroke-width="1"/>
      <path id="Caminho_3460" data-name="Caminho 3460" d="M587.074,561.758" fill="none" stroke="#3b69ff" stroke-linejoin="round" stroke-width="1"/>
      <path id="Caminho_3461" data-name="Caminho 3461" d="M552.263,561.758" fill="none" stroke="#3b69ff" stroke-linejoin="round" stroke-width="1"/>
      <path id="Caminho_3462" data-name="Caminho 3462" d="M565.684,561.758H551.721a2.28,2.28,0,0,1-2.279-2.279h0a2.279,2.279,0,0,1,2.279-2.279h35.9a2.279,2.279,0,0,1,2.279,2.279h0a2.28,2.28,0,0,1-2.279,2.279H573.7" fill="none" stroke="#3b69ff" stroke-linecap="round" stroke-linejoin="round" stroke-width="1"/>
      <line id="Linha_65" data-name="Linha 65" x1="1.082" transform="translate(569.128 561.758)" fill="none" stroke="#3b69ff" stroke-linecap="round" stroke-linejoin="round" stroke-width="1"/>
      <g id="Grupo_5596" data-name="Grupo 5596">
        <path id="Caminho_3463" data-name="Caminho 3463" d="M556.794,557.2l8.288-11.732a1.56,1.56,0,0,1,2.188-.364h0a1.56,1.56,0,0,1,.36,2.164l-7.017,9.932" fill="none" stroke="#3b69ff" stroke-linejoin="round" stroke-width="1"/>
        <path id="Caminho_3464" data-name="Caminho 3464" d="M582.483,557.2,574.2,545.468a1.56,1.56,0,0,0-2.188-.364h0a1.561,1.561,0,0,0-.36,2.164l7.017,9.932" fill="none" stroke="#3b69ff" stroke-linejoin="round" stroke-width="1"/>
      </g>
    </g>
  </g>
</svg>
