<svg id="Grupo_5843" data-name="Grupo 5843" xmlns="http://www.w3.org/2000/svg" width="24" height="24" viewBox="0 0 24 24">
  <rect id="Retângulo_3259" data-name="Retângulo 3259" width="24" height="24" rx="5" fill="#3b69ff"/>
  <g id="Grupo_5673" data-name="Grupo 5673" transform="translate(4.422 7.597)">
    <g id="Grupo_5612" data-name="Grupo 5612">
      <g id="Grupo_5611" data-name="Grupo 5611">
        <path id="Caminho_3442" data-name="Caminho 3442" d="M7.467,102.349c-4.058,0-7.236-4.284-7.369-4.467a.493.493,0,0,1,0-.581c.133-.182,3.311-4.467,7.369-4.467S14.7,97.119,14.835,97.3a.492.492,0,0,1,0,.581C14.7,98.065,11.525,102.349,7.467,102.349ZM1.122,97.592c.766.93,3.355,3.773,6.345,3.773s5.579-2.842,6.345-3.773c-.767-.93-3.356-3.773-6.345-3.773S1.887,96.661,1.122,97.592Z" transform="translate(-0.003 -92.835)" fill="#fff"/>
        <path id="Caminho_3443" data-name="Caminho 3443" d="M157.678,160.63a2.953,2.953,0,1,1,2.953-2.953A2.956,2.956,0,0,1,157.678,160.63Zm0-4.921a1.968,1.968,0,1,0,1.968,1.968A1.971,1.971,0,0,0,157.678,155.709Z" transform="translate(-150.214 -152.921)" fill="#fff"/>
      </g>
    </g>
  </g>
</svg>
