<svg xmlns="http://www.w3.org/2000/svg" width="40" height="39.999" viewBox="0 0 40 39.999">
  <g id="Grupo_6100" data-name="Grupo 6100" transform="translate(-917.229 -277.734)">
    <g id="Grupo_6096" data-name="Grupo 6096" transform="translate(922.89 286.068)">
      <path id="Caminho_3573" data-name="Caminho 3573" d="M933.237,308.607a.4.4,0,0,1-.282-.118l-8.532-8.531a.4.4,0,1,1,.566-.566l8.249,8.249,19.373-19.373a.4.4,0,0,1,.566.566L933.521,308.49A.4.4,0,0,1,933.237,308.607Z" transform="translate(-924.306 -288.152)" fill="#11c25d"/>
    </g>
    <g id="Grupo_6097" data-name="Grupo 6097" transform="translate(917.229 277.734)">
      <path id="Caminho_3574" data-name="Caminho 3574" d="M956.829,306.465a.4.4,0,0,1-.4-.4v-22.7a4.833,4.833,0,0,0-4.826-4.827H922.855a4.833,4.833,0,0,0-4.826,4.827v17.173a.4.4,0,0,1-.8,0V283.361a5.634,5.634,0,0,1,5.626-5.627H951.6a5.634,5.634,0,0,1,5.626,5.627v22.7A.4.4,0,0,1,956.829,306.465Z" transform="translate(-917.229 -277.734)" fill="#11c25d"/>
    </g>
    <g id="Grupo_6098" data-name="Grupo 6098" transform="translate(917.229 300.134)">
      <path id="Caminho_3575" data-name="Caminho 3575" d="M931.227,323.334h-8.371a5.633,5.633,0,0,1-5.626-5.626V306.134a.4.4,0,0,1,.8,0v11.574a4.832,4.832,0,0,0,4.826,4.826h8.371a.4.4,0,1,1,0,.8Z" transform="translate(-917.229 -305.734)" fill="#11c25d"/>
    </g>
    <g id="Grupo_6099" data-name="Grupo 6099" transform="translate(942.532 305.665)">
      <path id="Caminho_3576" data-name="Caminho 3576" d="M957.928,324.717h-8.671a.4.4,0,0,1,0-.8h8.671a4.832,4.832,0,0,0,4.826-4.826v-6.042a.4.4,0,0,1,.8,0v6.042A5.633,5.633,0,0,1,957.928,324.717Z" transform="translate(-948.858 -312.648)" fill="#11c25d"/>
    </g>
  </g>
</svg>
