<svg xmlns="http://www.w3.org/2000/svg" width="28.733" height="37.957" viewBox="0 0 28.733 37.957"><g transform="translate(-6.5)"><path d="M26.316,0H6.5V37.957H35.233V9.227Zm.358,2.16,6.472,6.7H26.674ZM7.723,36.692V1.265H25.452v8.857H34.01v26.57Z" fill="#3b69ff"/><path d="M41.642,21H26.45c-.524,0-.95.283-.95.633s.425.633.95.633H41.642c.524,0,.95-.283.95-.633S42.166,21,41.642,21Z" transform="translate(-13.766 -7.715)" fill="#3b69ff"/><path d="M41.642,32H26.45c-.524,0-.95.283-.95.633s.425.633.95.633H41.642c.524,0,.95-.283.95-.633S42.166,32,41.642,32Z" transform="translate(-13.766 -11.756)" fill="#3b69ff"/><path d="M41.642,43H26.45c-.524,0-.95.283-.95.633s.425.633.95.633H41.642c.524,0,.95-.283.95-.633S42.166,43,41.642,43Z" transform="translate(-13.766 -15.797)" fill="#3b69ff"/></g></svg>