<svg xmlns="http://www.w3.org/2000/svg" width="26.09" height="37.641" viewBox="0 0 26.09 37.641"><g transform="translate(-1481.56 78.638)"><path d="M1506.811-64.514a.59.59,0,0,0,.59-.59V-77.8a.59.59,0,0,0-.59-.59c-1.87,0-2.026,2.359-3.052,2.359s-1.18-2.359-3.052-2.359-2.026,2.359-3.051,2.359-1.177-2.359-3.052-2.359-2.026,2.359-3.051,2.359-1.181-2.359-3.051-2.359-2.026,2.359-3.051,2.359-1.176-2.359-3.051-2.359a.59.59,0,0,0-.59.59v35.962a.59.59,0,0,0,.59.59c1.869,0,2.026-2.359,3.051-2.359s1.176,2.359,3.051,2.359,2.026-2.359,3.051-2.359,1.176,2.359,3.051,2.359,2.026-2.359,3.052-2.359,1.176,2.359,3.051,2.359,2.026-2.359,3.052-2.359,1.18,2.359,3.052,2.359a.59.59,0,0,0,.59-.59V-62.9a.59.59,0,0,0-.59-.59.589.589,0,0,0-.59.59v20.178c-.589-.651-1.018-2.061-2.462-2.061-1.869,0-2.026,2.359-3.052,2.359s-1.181-2.359-3.051-2.359-2.026,2.359-3.052,2.359-1.176-2.359-3.051-2.359-2.026,2.359-3.051,2.359-1.176-2.359-3.051-2.359c-1.443,0-1.872,1.41-2.461,2.061V-76.911c.588.65,1.018,2.061,2.462,2.061,1.869,0,2.026-2.359,3.051-2.359s1.176,2.359,3.051,2.359,2.026-2.359,3.051-2.359,1.176,2.359,3.051,2.359,2.026-2.359,3.051-2.359,1.181,2.359,3.052,2.359c1.444,0,1.873-1.411,2.462-2.061V-65.1A.59.59,0,0,0,1506.811-64.514Z" fill="#3b69ff" stroke="#fff" stroke-width="0.5"/><path d="M1549.859,16.615a.59.59,0,0,0-.59-.59H1538.2a.59.59,0,0,0,0,1.18h10.476v1.273h-14.32V17.2H1536a.59.59,0,0,0,0-1.18h-2.232a.59.59,0,0,0-.59.59v2.452a.59.59,0,0,0,.59.59h15.5a.59.59,0,0,0,.59-.59Z" transform="translate(-46.914 -86.224)" fill="#3b69ff" stroke="#fff" stroke-width="0.5"/><path d="M1549.859,117.786a.59.59,0,0,0-.59-.59h-15.5a.59.59,0,0,0,0,1.18h15.5A.59.59,0,0,0,1549.859,117.786Z" transform="translate(-46.914 -180.319)" fill="#3b69ff" stroke="#fff" stroke-width="0.5"/><path d="M1601.789,170.941a.386.386,0,0,0,.305-.387v-.542a2.227,2.227,0,0,0,2.178-2.263c0-1.551-1.254-1.9-2.178-2.3v-1.434a.973.973,0,0,1,.535.431.3.3,0,0,0,.4.1l.913-.534a.3.3,0,0,0,.109-.408,2.53,2.53,0,0,0-1.959-1.275v-.553a.386.386,0,0,0-.305-.387.372.372,0,0,0-.439.366v.553a2.19,2.19,0,0,0-2.168,2.2c0,1.424,1.105,1.945,2.03,2.317.043.021.1.032.138.053v1.466a1.242,1.242,0,0,1-.9-.677.24.24,0,0,0-.329-.087l-1.059.614a.242.242,0,0,0-.1.311,2.7,2.7,0,0,0,2.39,1.518v.553A.372.372,0,0,0,1601.789,170.941Zm.305-3.756c.319.159.478.319.478.584a.558.558,0,0,1-.478.553Zm-1.252-2.66a.588.588,0,0,1,.508-.539V165.1C1600.978,164.89,1600.842,164.727,1600.842,164.525Z" transform="translate(-106.968 -218.974)" fill="#3b69ff" stroke="#fff" stroke-width="0.2"/></g></svg>