<svg xmlns="http://www.w3.org/2000/svg" width="42.09" height="38" viewBox="0 0 42.09 38"><path d="M37.651,0H10.435A4.267,4.267,0,0,0,6.151,4.236L5.975,28.2H.664A.691.691,0,0,0,0,28.911v3.3A5.779,5.779,0,0,0,5.453,37.96V38H28.372v-.045c.17.007.274.045.391.045h.016a5.761,5.761,0,0,0,5.727-5.791V11.247h6.919a.7.7,0,0,0,.664-.717V4.478A4.47,4.47,0,0,0,37.651,0ZM5.751,36.637h0a4.417,4.417,0,0,1-4.383-4.428V29.565H23V32.2a5.769,5.769,0,0,0,1.684,4.094,2.448,2.448,0,0,1,.359.346Zm27.392-4.429a4.4,4.4,0,0,1-4.365,4.429h-.014a4.429,4.429,0,0,1-4.4-4.439V28.911a.706.706,0,0,0-.682-.709H7.339L7.514,4.241a2.9,2.9,0,0,1,2.92-2.878h24A4.651,4.651,0,0,0,33.143,4.5ZM40.726,4.49V9.883h-6.22V4.5a3.157,3.157,0,0,1,3.125-3.132h.019a3.107,3.107,0,0,1,3.076,3.122Zm0,0" fill="#3b69ff"/><path d="M165.115,65.787l3.514,2.4a.671.671,0,0,0,.762,0l3.5-2.4a5.294,5.294,0,0,0,2.116-4.038V56.888a.666.666,0,0,0-.363-.612L169.3,53.644a.67.67,0,0,0-.6,0l-5.341,2.625a.665.665,0,0,0-.363.612v4.868A5.294,5.294,0,0,0,165.115,65.787Zm-.755-8.481L169,55.015l4.643,2.3v4.437a3.928,3.928,0,0,1-1.522,2.912L169,66.8l-3.117-2.14a3.926,3.926,0,0,1-1.518-2.912Zm0,0" transform="translate(-149.109 -49.01)" fill="#3b69ff"/><path d="M203.111,120a.681.681,0,0,0,.483.2h0a.683.683,0,0,0,.482-.2l2.711-2.712a.682.682,0,0,0-.964-.965l-2.227,2.227-.89-.9a.682.682,0,1,0-.969.96Zm0,0" transform="translate(-184.369 -106.235)" fill="#3b69ff"/><path d="M150.04,248H133.682a.682.682,0,0,0,0,1.363H150.04a.682.682,0,1,0,0-1.363Zm0,0" transform="translate(-121.668 -226.87)" fill="#3b69ff"/><path d="M150.04,285H133.682a.682.682,0,0,0,0,1.363H150.04a.682.682,0,1,0,0-1.363Zm0,0" transform="translate(-121.668 -260.717)" fill="#3b69ff"/></svg>